<?xml version="1.0" encoding="UTF-8"?>
<svg xmlns="http://www.w3.org/2000/svg" viewBox="0 0 1800 1620" font-family="-apple-system, BlinkMacSystemFont, Segoe UI, Helvetica, Arial, sans-serif">
  <defs>
    <marker id="arrow" viewBox="0 0 10 10" refX="9" refY="5" markerWidth="8" markerHeight="8" orient="auto-start-reverse">
      <path d="M0,0 L10,5 L0,10 z" fill="#555"/>
    </marker>
    <marker id="arrowBlue" viewBox="0 0 10 10" refX="9" refY="5" markerWidth="8" markerHeight="8" orient="auto-start-reverse">
      <path d="M0,0 L10,5 L0,10 z" fill="#1473e6"/>
    </marker>
    <marker id="arrowOrange" viewBox="0 0 10 10" refX="9" refY="5" markerWidth="8" markerHeight="8" orient="auto-start-reverse">
      <path d="M0,0 L10,5 L0,10 z" fill="#ff9500"/>
    </marker>
    <marker id="arrowPurple" viewBox="0 0 10 10" refX="9" refY="5" markerWidth="8" markerHeight="8" orient="auto-start-reverse">
      <path d="M0,0 L10,5 L0,10 z" fill="#6a2bff"/>
    </marker>
    <marker id="arrowGreen" viewBox="0 0 10 10" refX="9" refY="5" markerWidth="8" markerHeight="8" orient="auto-start-reverse">
      <path d="M0,0 L10,5 L0,10 z" fill="#00a86b"/>
    </marker>
    <style>
      .lane    { fill: #fafafa; stroke: #d0d0d0; stroke-dasharray: 4 4; }
      .lane-h  { font-size: 14px; font-weight: 700; fill: #888; letter-spacing: 0.1em; text-transform: uppercase; }
      .box     { stroke-width: 1.5; }
      .box-dev { fill: #eaf2ff; stroke: #1473e6; }
      .box-bld { fill: #fff4e0; stroke: #ff9500; }
      .box-jcr { fill: #f0e7ff; stroke: #6a2bff; }
      .box-rt  { fill: #e1f7ec; stroke: #00a86b; }
      .box-warn{ fill: #ffeae8; stroke: #d33; }
      .box-zip { fill: #fff8d6; stroke: #d4a017; }
      .title   { font-size: 14px; font-weight: 700; fill: #1a1a1a; }
      .subtitle{ font-size: 11px; fill: #555; }
      .code    { font-family: ui-monospace, SFMono-Regular, Menlo, Consolas, monospace; font-size: 11px; fill: #1a1a1a; }
      .badge   { font-size: 10px; font-weight: 700; fill: #fff; }
      .arrow-label { font-size: 11px; fill: #1a1a1a; font-weight: 600; }
      .arrow-sub   { font-size: 10px; fill: #555; }
      .note    { font-size: 11px; fill: #555; font-style: italic; }
      .h2      { font-size: 16px; font-weight: 800; fill: #1a1a1a; }
    </style>
  </defs>

  <!-- Title -->
  <text x="900" y="36" text-anchor="middle" font-size="22" font-weight="800" fill="#1a1a1a">Option B &#8212; AEM Project Archetype: Maven multi-module + content package deploy</text>
  <text x="900" y="58" text-anchor="middle" font-size="13" fill="#666">spa-mvn/ &#8212; what a production team ships. Generates promotable .zip artifact, integrates with Cloud Manager / CI.</text>

  <!-- ====== SECTION 1: SOURCE MODULES ====== -->
  <rect class="lane" x="30" y="80" width="1740" height="370" rx="10"/>
  <text class="lane-h" x="50" y="105">1 &#183; Source &#8212; Maven multi-module project (generated by aem-project-archetype:49 via maven-archetype-plugin 3.2.1)</text>

  <!-- parent pom -->
  <rect class="box box-dev" x="50" y="125" width="320" height="80" rx="8"/>
  <text class="title" x="70" y="148">spa-mvn/pom.xml</text>
  <text class="subtitle" x="70" y="164">Parent &#8212; declares modules + plugin versions</text>
  <text class="code" x="70" y="182">&lt;nodeVersion&gt;v20.18.1&lt;/nodeVersion&gt;   (we bumped from v16)</text>
  <text class="code" x="70" y="196">&lt;frontend-maven-plugin&gt; v1.12.0</text>

  <!-- core -->
  <rect class="box box-dev" x="50" y="220" width="320" height="100" rx="8"/>
  <text class="title" x="70" y="243">core/</text>
  <text class="subtitle" x="70" y="259">Java OSGi bundle</text>
  <text class="code" x="70" y="278">src/main/java/com/example/spamvn/</text>
  <text class="code" x="70" y="294">  servlets/, models/, schedulers/</text>
  <text class="code" x="70" y="310">&#8594; output: spa-mvn.core-0.0.1-SNAPSHOT.jar</text>

  <!-- ui.frontend -->
  <rect class="box box-dev" x="385" y="125" width="380" height="195" rx="8"/>
  <text class="title" x="405" y="148">ui.frontend/</text>
  <text class="subtitle" x="405" y="164">Vue 3 + Vite (replaced webpack scaffold)</text>
  <text class="code" x="405" y="184">package.json                "type":"module"</text>
  <text class="code" x="405" y="200">vite.config.js              entryFileNames: 'js/site.js'</text>
  <text class="code" x="405" y="216">clientlib.config.cjs        aem-clientlib-generator</text>
  <text class="code" x="405" y="232">src/main.js                 createApp(App).mount('#spa-mvn-app')</text>
  <text class="code" x="405" y="248">src/App.vue                 composes 7 sections</text>
  <text class="code" x="405" y="264">src/components/</text>
  <text class="code" x="405" y="280">  AppHeader, HeroSection, LogoStrip,</text>
  <text class="code" x="405" y="296">  FeatureGrid + FeatureCard, StatsBar,</text>
  <text class="code" x="405" y="312">  CTABanner, AppFooter</text>

  <!-- ui.apps -->
  <rect class="box box-dev" x="780" y="125" width="380" height="195" rx="8"/>
  <text class="title" x="800" y="148">ui.apps/</text>
  <text class="subtitle" x="800" y="164">Everything under /apps/spa-mvn in JCR</text>
  <text class="code" x="800" y="184">src/main/content/jcr_root/apps/spa-mvn/</text>
  <text class="code" x="800" y="200">  components/page/                       cq:Component</text>
  <text class="code" x="800" y="216">    .content.xml</text>
  <text class="code" x="800" y="232">    page.html             &#8592; OUR override (HTL shell)</text>
  <text class="code" x="800" y="248">    customheaderlibs.html, customfooterlibs.html</text>
  <text class="code" x="800" y="264">  components/...           Core Components proxies</text>
  <text class="code" x="800" y="280">  clientlibs/clientlib-site/             cq:ClientLibraryFolder</text>
  <text class="code" x="800" y="296">    js/site.js, css/site.css   &#8592; from ui.frontend</text>
  <text class="code" x="800" y="312">    categories=[spa-mvn.site], allowProxy=true</text>

  <!-- ui.content -->
  <rect class="box box-dev" x="1175" y="125" width="380" height="195" rx="8"/>
  <text class="title" x="1195" y="148">ui.content/</text>
  <text class="subtitle" x="1195" y="164">Sample pages + templates under /content, /conf</text>
  <text class="code" x="1195" y="184">src/main/content/jcr_root/content/spa-mvn/</text>
  <text class="code" x="1195" y="200">  .content.xml          cq:Page, redirect to /us/en</text>
  <text class="code" x="1195" y="216">  us/.content.xml       cq:Page, redirect to /en</text>
  <text class="code" x="1195" y="232">  us/en/.content.xml    cq:Page (the SPA page)</text>
  <text class="code" x="1195" y="248">    sling:resourceType = "spa-mvn/components/page"</text>
  <text class="code" x="1195" y="264"></text>
  <text class="code" x="1195" y="280">.../jcr_root/conf/spa-mvn/</text>
  <text class="code" x="1195" y="296">  settings/wcm/templates, policies,</text>
  <text class="code" x="1195" y="312">  template-types &#8212; editable template system</text>

  <!-- ui.apps.structure -->
  <rect class="box box-dev" x="385" y="335" width="200" height="105" rx="8"/>
  <text class="title" x="405" y="358">ui.apps.structure/</text>
  <text class="subtitle" x="405" y="374">Filevault structural package</text>
  <text class="code" x="405" y="392">Empty content, declares</text>
  <text class="code" x="405" y="408">/apps + /conf root</text>
  <text class="code" x="405" y="424">ownership for FileVault</text>

  <!-- ui.config -->
  <rect class="box box-dev" x="600" y="335" width="200" height="105" rx="8"/>
  <text class="title" x="620" y="358">ui.config/</text>
  <text class="subtitle" x="620" y="374">Runmode OSGi configs</text>
  <text class="code" x="620" y="392">/apps/spa-mvn/osgiconfig/</text>
  <text class="code" x="620" y="408">  config/</text>
  <text class="code" x="620" y="424">  config.author/, config.publish/</text>

  <!-- all -->
  <rect class="box box-zip" x="815" y="335" width="220" height="105" rx="8"/>
  <text class="title" x="835" y="358">all/</text>
  <text class="subtitle" x="835" y="374">Aggregator content package</text>
  <text class="code" x="835" y="392">Bundles core.jar +</text>
  <text class="code" x="835" y="408">ui.apps + ui.content +</text>
  <text class="code" x="835" y="424">ui.config &#8594; spa-mvn.all.zip</text>

  <!-- it.tests + ui.tests -->
  <rect class="box box-dev" x="1050" y="335" width="240" height="105" rx="8"/>
  <text class="title" x="1070" y="358">it.tests/ + ui.tests/</text>
  <text class="subtitle" x="1070" y="374">Integration + UI tests</text>
  <text class="code" x="1070" y="392">it.tests &#8212; Java + sling-mock,</text>
  <text class="code" x="1070" y="408">HTTP client against author</text>
  <text class="code" x="1070" y="424">ui.tests &#8212; Cypress e2e</text>

  <!-- legend in section 1 -->
  <rect class="box box-warn" x="1305" y="335" width="450" height="105" rx="8"/>
  <text class="title" x="1325" y="358" fill="#a02020">&#9888; Archetype gotchas (already fixed)</text>
  <text class="code" x="1325" y="378">- Pin maven-archetype-plugin:3.2.1 (3.4 breaks on .gif)</text>
  <text class="code" x="1325" y="394">- frontendModule=general (Vue isn't an archetype option)</text>
  <text class="code" x="1325" y="410">- includeDispatcherConfig=n (we ship dispatcher separately)</text>
  <text class="code" x="1325" y="426">- Bump &lt;nodeVersion&gt;v20.18.1&lt;/nodeVersion&gt; for Vite 5</text>

  <!-- ====== SECTION 2: BUILD PIPELINE ====== -->
  <rect class="lane" x="30" y="475" width="1740" height="430" rx="10"/>
  <text class="lane-h" x="50" y="500">2 &#183; Build &#8212; mvn -PautoInstallPackage clean install  (reactor builds modules in dependency order)</text>

  <!-- Reactor command -->
  <rect class="box box-bld" x="50" y="525" width="1700" height="50" rx="8"/>
  <text class="title" x="70" y="548">$ export JAVA_HOME=/usr/lib/jvm/java-11-openjdk-amd64</text>
  <text class="code" x="70" y="565">$ mvn -PautoInstallPackage clean install                   (Maven 3.8.7 + JDK 11)</text>

  <!-- Phase 1: core -->
  <rect class="box box-bld" x="50" y="595" width="240" height="100" rx="8"/>
  <text class="title" x="70" y="618">[1] core</text>
  <text class="subtitle" x="70" y="634">maven-compiler-plugin</text>
  <text class="code" x="70" y="652">javac src/main/java/**</text>
  <text class="code" x="70" y="668">bnd-maven-plugin &#8594; OSGi bundle</text>
  <text class="code" x="70" y="686">target/spa-mvn.core-0.0.1.jar</text>

  <!-- Phase 2: ui.frontend -->
  <rect class="box box-bld" x="310" y="595" width="290" height="265" rx="8"/>
  <text class="title" x="330" y="618">[2] ui.frontend</text>
  <text class="subtitle" x="330" y="634">frontend-maven-plugin (downloads Node 20)</text>
  <text class="code" x="330" y="654">install-node-and-npm</text>
  <text class="subtitle" x="330" y="670">  &#8594; ui.frontend/node/node20</text>
  <text class="code" x="330" y="690">npm ci</text>
  <text class="subtitle" x="330" y="706">  &#8594; requires package-lock.json</text>
  <text class="code" x="330" y="726">npm run prod</text>
  <text class="subtitle" x="330" y="742">  &#8594; vite build &#8594; dist/clientlib-site/{js,css}</text>
  <text class="subtitle" x="330" y="758">  &#8594; clientlib clientlib.config.cjs</text>
  <text class="subtitle" x="330" y="774">    &#8594; copies into ../ui.apps/.../clientlibs/</text>
  <text class="code" x="330" y="794">  result:</text>
  <text class="code" x="330" y="810">  ui.apps/.../clientlib-site/js/site.js</text>
  <text class="code" x="330" y="826">  ui.apps/.../clientlib-site/css/site.css</text>
  <text class="code" x="330" y="842">  .content.xml + js.txt + css.txt</text>

  <!-- Phase 3: ui.apps.structure -->
  <rect class="box box-bld" x="620" y="595" width="220" height="100" rx="8"/>
  <text class="title" x="640" y="618">[3] ui.apps.structure</text>
  <text class="subtitle" x="640" y="634">filevault-package-maven-plugin</text>
  <text class="code" x="640" y="652">structure-only zip</text>
  <text class="code" x="640" y="668">declares /apps/spa-mvn root</text>
  <text class="code" x="640" y="686">&#8594; required by ui.apps</text>

  <!-- Phase 4: ui.apps -->
  <rect class="box box-bld" x="620" y="710" width="220" height="150" rx="8"/>
  <text class="title" x="640" y="733">[4] ui.apps</text>
  <text class="subtitle" x="640" y="749">filevault-package-maven-plugin</text>
  <text class="code" x="640" y="769">Read src/main/content/jcr_root</text>
  <text class="code" x="640" y="785">Convert .content.xml &#8594; JCR XML</text>
  <text class="code" x="640" y="801">Include js/site.js, css/site.css</text>
  <text class="code" x="640" y="817">(from ui.frontend step)</text>
  <text class="code" x="640" y="835">target/spa-mvn.ui.apps</text>
  <text class="code" x="640" y="851">  -0.0.1.zip</text>

  <!-- Phase 5: ui.content -->
  <rect class="box box-bld" x="860" y="595" width="220" height="100" rx="8"/>
  <text class="title" x="880" y="618">[5] ui.content</text>
  <text class="subtitle" x="880" y="634">filevault-package-maven-plugin</text>
  <text class="code" x="880" y="652">/content/spa-mvn/* +</text>
  <text class="code" x="880" y="668">/conf/spa-mvn/* &#8594; zip</text>
  <text class="code" x="880" y="686">target/spa-mvn.ui.content-0.0.1.zip</text>

  <!-- Phase 6: ui.config -->
  <rect class="box box-bld" x="860" y="710" width="220" height="100" rx="8"/>
  <text class="title" x="880" y="733">[6] ui.config</text>
  <text class="subtitle" x="880" y="749">filevault-package-maven-plugin</text>
  <text class="code" x="880" y="769">/apps/spa-mvn/osgiconfig/*</text>
  <text class="code" x="880" y="785">runmode-filtered OSGi configs</text>
  <text class="code" x="880" y="801">target/spa-mvn.ui.config-0.0.1.zip</text>

  <!-- Phase 7: all -->
  <rect class="box box-zip" x="1105" y="595" width="320" height="265" rx="8"/>
  <text class="title" x="1125" y="618">[7] all  &#8212; THE SHIPPABLE ARTIFACT</text>
  <text class="subtitle" x="1125" y="634">filevault-package-maven-plugin (container)</text>
  <text class="code" x="1125" y="654">Embeds:</text>
  <text class="code" x="1125" y="670">  /etc/packages/com.example/</text>
  <text class="code" x="1125" y="686">    spa-mvn.core-0.0.1.jar       (as OSGi)</text>
  <text class="code" x="1125" y="702">    spa-mvn.ui.apps-0.0.1.zip</text>
  <text class="code" x="1125" y="718">    spa-mvn.ui.content-0.0.1.zip</text>
  <text class="code" x="1125" y="734">    spa-mvn.ui.config-0.0.1.zip</text>
  <text class="code" x="1125" y="754">Filters / install hooks ensure correct</text>
  <text class="code" x="1125" y="770">install order: structure &#8594; configs &#8594;</text>
  <text class="code" x="1125" y="786">bundles &#8594; apps &#8594; content</text>
  <text class="title" x="1125" y="816">target/spa-mvn.all-0.0.1-SNAPSHOT.zip</text>
  <text class="subtitle" x="1125" y="834">    &#8776; few MB &#8212; same file promotes to all envs</text>

  <!-- Phase 8: autoInstallPackage -->
  <rect class="box box-bld" x="1445" y="595" width="305" height="265" rx="8"/>
  <text class="title" x="1465" y="618">[8] autoInstallPackage  (profile)</text>
  <text class="subtitle" x="1465" y="634">aem-maven-plugin (Adobe)</text>
  <text class="code" x="1465" y="654">HTTP POST multipart upload to:</text>
  <text class="code" x="1465" y="670">  http://localhost:4502/crx/packmgr/</text>
  <text class="code" x="1465" y="686">    service.jsp</text>
  <text class="code" x="1465" y="702">  cmd=upload &amp; install=true</text>
  <text class="code" x="1465" y="718">  Auth: Basic admin:admin</text>
  <text class="code" x="1465" y="740">Package Manager on author:</text>
  <text class="code" x="1465" y="756">  &#8594; stores zip at /etc/packages/</text>
  <text class="code" x="1465" y="772">  &#8594; runs install hooks</text>
  <text class="code" x="1465" y="788">  &#8594; expands each sub-package</text>
  <text class="code" x="1465" y="804">  &#8594; deploys core.jar via Felix</text>
  <text class="code" x="1465" y="820">  &#8594; commits JCR changes</text>
  <text class="code" x="1465" y="836">  &#8594; fires post-install workflows</text>

  <!-- Reactor arrows -->
  <path d="M 290,645 L 310,645" stroke="#ff9500" stroke-width="2" fill="none" marker-end="url(#arrowOrange)"/>
  <path d="M 600,645 L 620,645" stroke="#ff9500" stroke-width="2" fill="none" marker-end="url(#arrowOrange)"/>
  <path d="M 730,695 L 730,710" stroke="#ff9500" stroke-width="2" fill="none" marker-end="url(#arrowOrange)"/>
  <path d="M 600,780 C 605,780 605,780 620,780" stroke="#1473e6" stroke-width="2" stroke-dasharray="3 3" fill="none" marker-end="url(#arrowBlue)"/>
  <text class="arrow-sub" x="540" y="770" fill="#1473e6">copy JS+CSS</text>
  <path d="M 840,645 L 860,645" stroke="#ff9500" stroke-width="2" fill="none" marker-end="url(#arrowOrange)"/>
  <path d="M 970,695 L 970,710" stroke="#ff9500" stroke-width="2" fill="none" marker-end="url(#arrowOrange)"/>
  <path d="M 840,760 L 860,760" stroke="#ff9500" stroke-width="2" fill="none" marker-end="url(#arrowOrange)"/>
  <path d="M 1080,645 L 1105,645" stroke="#ff9500" stroke-width="2" fill="none" marker-end="url(#arrowOrange)"/>
  <path d="M 1080,760 L 1105,760" stroke="#ff9500" stroke-width="2" fill="none" marker-end="url(#arrowOrange)"/>
  <path d="M 1425,728 L 1445,728" stroke="#d4a017" stroke-width="2.5" fill="none" marker-end="url(#arrow)"/>

  <!-- ====== SECTION 3: JCR after install ====== -->
  <rect class="lane" x="30" y="930" width="1180" height="350" rx="10"/>
  <text class="lane-h" x="50" y="955">3 &#183; AEM Author JCR after package install (localhost:4502)</text>

  <rect class="box box-jcr" x="50" y="975" width="565" height="290" rx="8"/>
  <text class="title" x="70" y="998">/apps/spa-mvn</text>
  <text class="code" x="70" y="1018">/apps/spa-mvn                                sling:Folder</text>
  <text class="code" x="70" y="1034">&#9500;&#9472; components/                          (Core Components proxies)</text>
  <text class="code" x="70" y="1050">&#9474;   &#9500;&#9472; page                                cq:Component</text>
  <text class="code" x="70" y="1066">&#9474;   &#9474;   &#9500;&#9472; .content.xml</text>
  <text class="code" x="70" y="1082">&#9474;   &#9474;   &#9500;&#9472; page.html       (our HTL shell)</text>
  <text class="code" x="70" y="1098">&#9474;   &#9474;   &#9500;&#9472; customheaderlibs.html</text>
  <text class="code" x="70" y="1114">&#9474;   &#9474;   &#9492;&#9472; customfooterlibs.html</text>
  <text class="code" x="70" y="1130">&#9474;   &#9500;&#9472; container, title, text, image, ...     (proxies)</text>
  <text class="code" x="70" y="1146">&#9492;&#9472; clientlibs/clientlib-site                 cq:ClientLibraryFolder</text>
  <text class="code" x="70" y="1162">    &#9474;  categories = ["spa-mvn.site"]</text>
  <text class="code" x="70" y="1178">    &#9474;  allowProxy = true</text>
  <text class="code" x="70" y="1194">    &#9500;&#9472; js.txt, css.txt</text>
  <text class="code" x="70" y="1210">    &#9500;&#9472; js/site.js               (~72 KB Vue bundle)</text>
  <text class="code" x="70" y="1226">    &#9492;&#9472; css/site.css             (~10 KB scoped styles)</text>
  <text class="code" x="70" y="1246">+ /apps/spa-mvn/osgiconfig (from ui.config)</text>

  <rect class="box box-jcr" x="630" y="975" width="565" height="290" rx="8"/>
  <text class="title" x="650" y="998">/content/spa-mvn  +  /conf/spa-mvn</text>
  <text class="code" x="650" y="1018">/content/spa-mvn                              cq:Page</text>
  <text class="code" x="650" y="1034">&#9474;  cq:redirectTarget = "/content/spa-mvn/us/en"</text>
  <text class="code" x="650" y="1050">&#9474;  sling:redirect = true (302)</text>
  <text class="code" x="650" y="1066">&#9500;&#9472; us                                          cq:Page</text>
  <text class="code" x="650" y="1082">&#9474;   &#9474;  cq:redirectTarget = "/content/spa-mvn/us/en"</text>
  <text class="code" x="650" y="1098">&#9474;   &#9492;&#9472; en                                       cq:Page</text>
  <text class="code" x="650" y="1114">&#9474;       &#9492;&#9472; jcr:content                       cq:PageContent</text>
  <text class="code" x="650" y="1130">&#9474;           &#9500;&#9472; pageTitle = "SPA MVN"</text>
  <text class="code" x="650" y="1146">&#9474;           &#9500;&#9472; cq:template = "/conf/spa-mvn/.../page-content"</text>
  <text class="code" x="650" y="1162">&#9474;           &#9492;&#9472; sling:resourceType =</text>
  <text class="code" x="650" y="1178">&#9474;                   "spa-mvn/components/page"</text>
  <text class="code" x="650" y="1198">/conf/spa-mvn                                 sling:Folder</text>
  <text class="code" x="650" y="1214">&#9492;&#9472; settings/wcm/templates/   editable templates</text>
  <text class="code" x="650" y="1230">    settings/wcm/policies/    policy mappings</text>
  <text class="code" x="650" y="1246">    settings/wcm/template-types/  base template types</text>

  <!-- ====== SECTION 4: RUNTIME (right column) ====== -->
  <rect class="lane" x="1225" y="930" width="545" height="350" rx="10"/>
  <text class="lane-h" x="1245" y="955">4 &#183; Runtime  (browser request flow)</text>

  <rect class="box box-rt" x="1245" y="975" width="505" height="48" rx="8"/>
  <text class="title" x="1265" y="995">Browser</text>
  <text class="code" x="1265" y="1013">GET /content/spa-mvn.html</text>

  <rect class="box box-rt" x="1245" y="1038" width="505" height="60" rx="8"/>
  <text class="title" x="1265" y="1058">Sling redirect (PageRedirectServlet)</text>
  <text class="code" x="1265" y="1078">302 &#8594; /content/spa-mvn/us/en.html</text>

  <rect class="box box-rt" x="1245" y="1113" width="505" height="65" rx="8"/>
  <text class="title" x="1265" y="1133">Resource resolution &amp; script lookup</text>
  <text class="code" x="1265" y="1151">cq:Page jcr:content sling:resourceType</text>
  <text class="code" x="1265" y="1167">&#8594; /apps/spa-mvn/components/page/page.html</text>

  <rect class="box box-rt" x="1245" y="1193" width="505" height="50" rx="8"/>
  <text class="title" x="1265" y="1213">HTL render &#8594; clientlib serve &#8594; Vue mount</text>
  <text class="subtitle" x="1265" y="1231">/etc.clientlibs/spa-mvn/clientlibs/clientlib-site.lc-*-lc.min.{js,css}</text>

  <!-- Runtime arrows -->
  <path d="M 1497,1023 L 1497,1038" stroke="#00a86b" stroke-width="2" fill="none" marker-end="url(#arrowGreen)"/>
  <path d="M 1497,1098 L 1497,1113" stroke="#00a86b" stroke-width="2" fill="none" marker-end="url(#arrowGreen)"/>
  <path d="M 1497,1178 L 1497,1193" stroke="#00a86b" stroke-width="2" fill="none" marker-end="url(#arrowGreen)"/>

  <!-- arrow from JCR to runtime -->
  <path d="M 1195,1100 C 1215,1100 1225,1110 1245,1115" stroke="#6a2bff" stroke-width="2" stroke-dasharray="4 3" fill="none" marker-end="url(#arrowPurple)"/>
  <text class="arrow-sub" x="1205" y="1090" fill="#6a2bff">serve from JCR</text>

  <!-- ====== SECTION 5: PROMOTION ====== -->
  <rect class="lane" x="30" y="1305" width="1740" height="135" rx="10"/>
  <text class="lane-h" x="50" y="1330">5 &#183; Promotion &#8212; SAME spa-mvn.all-0.0.1.zip flows through environments</text>

  <rect class="box box-zip" x="50" y="1350" width="180" height="75" rx="8"/>
  <text class="title" x="70" y="1370">Dev (this box)</text>
  <text class="code" x="70" y="1388">mvn -PautoInstallPackage</text>
  <text class="subtitle" x="70" y="1404">localhost:4502/crx/packmgr</text>
  <text class="subtitle" x="70" y="1418">(60 s on this machine)</text>

  <rect class="box box-zip" x="270" y="1350" width="180" height="75" rx="8"/>
  <text class="title" x="290" y="1370">CI build</text>
  <text class="code" x="290" y="1388">mvn clean install</text>
  <text class="subtitle" x="290" y="1404">artifact &#8594; Nexus / Artifactory</text>
  <text class="subtitle" x="290" y="1418">spa-mvn.all-0.0.1.zip</text>

  <rect class="box box-zip" x="490" y="1350" width="180" height="75" rx="8"/>
  <text class="title" x="510" y="1370">Stage</text>
  <text class="code" x="510" y="1388">curl POST to packmgr</text>
  <text class="subtitle" x="510" y="1404">stage-author.example.com</text>
  <text class="subtitle" x="510" y="1418">runmode-config picks up creds</text>

  <rect class="box box-zip" x="710" y="1350" width="180" height="75" rx="8"/>
  <text class="title" x="730" y="1370">Cloud Manager</text>
  <text class="code" x="730" y="1388">pipeline upload to AEMaaCS</text>
  <text class="subtitle" x="730" y="1404">prod-author + prod-publish</text>
  <text class="subtitle" x="730" y="1418">+ dispatcher rules deploy</text>

  <rect class="box box-zip" x="930" y="1350" width="180" height="75" rx="8"/>
  <text class="title" x="950" y="1370">Replication</text>
  <text class="code" x="950" y="1388">author &#8594; publish</text>
  <text class="subtitle" x="950" y="1404">via Sites UI &#171;Publish&#187;</text>
  <text class="subtitle" x="950" y="1418">or /bin/replicate.json</text>

  <path d="M 230,1390 L 270,1390" stroke="#d4a017" stroke-width="2" fill="none" marker-end="url(#arrow)"/>
  <path d="M 450,1390 L 490,1390" stroke="#d4a017" stroke-width="2" fill="none" marker-end="url(#arrow)"/>
  <path d="M 670,1390 L 710,1390" stroke="#d4a017" stroke-width="2" fill="none" marker-end="url(#arrow)"/>
  <path d="M 890,1390 L 930,1390" stroke="#d4a017" stroke-width="2" fill="none" marker-end="url(#arrow)"/>

  <text class="note" x="1140" y="1378">Same .zip every time. Runmode-scoped OSGi configs (in ui.config) supply per-env values</text>
  <text class="note" x="1140" y="1394">(API URLs, credentials, feature flags) without rebuilds.</text>
  <text class="note" x="1140" y="1410">Version stamped into Maven artifact = traceable from prod back to git SHA.</text>

  <!-- ====== Big arrows between sections ====== -->
  <path d="M 900,450 L 900,475" stroke="#555" stroke-width="3" fill="none" marker-end="url(#arrow)"/>
  <text class="arrow-label" x="920" y="468">mvn install</text>

  <path d="M 900,905 L 900,930" stroke="#555" stroke-width="3" fill="none" marker-end="url(#arrow)"/>
  <text class="arrow-label" x="920" y="923">install package</text>

  <path d="M 1497,1280 L 1497,1305" stroke="#555" stroke-width="3" fill="none" marker-end="url(#arrow)"/>
  <text class="arrow-label" x="1517" y="1298">artifact = promotion unit</text>

  <!-- ====== LEGEND at the bottom ====== -->
  <rect class="lane" x="30" y="1465" width="1740" height="135" rx="10"/>
  <text class="lane-h" x="50" y="1490">6 &#183; Notes &amp; pros / cons</text>

  <rect class="box box-dev" x="50" y="1510" width="18" height="18" rx="3"/>
  <text class="code" x="78" y="1525">Source module</text>
  <rect class="box box-bld" x="200" y="1510" width="18" height="18" rx="3"/>
  <text class="code" x="228" y="1525">Build phase / plugin</text>
  <rect class="box box-zip" x="380" y="1510" width="18" height="18" rx="3"/>
  <text class="code" x="408" y="1525">Shippable artifact (.zip)</text>
  <rect class="box box-jcr" x="580" y="1510" width="18" height="18" rx="3"/>
  <text class="code" x="608" y="1525">JCR node</text>
  <rect class="box box-rt" x="720" y="1510" width="18" height="18" rx="3"/>
  <text class="code" x="748" y="1525">Runtime step</text>
  <rect class="box box-warn" x="860" y="1510" width="18" height="18" rx="3"/>
  <text class="code" x="888" y="1525">Gotcha / pitfall</text>

  <text class="title" x="50" y="1555">Pros</text>
  <text class="code" x="50" y="1573">+ Reproducible build from git &#8212; same .zip every time, traceable to commit SHA</text>
  <text class="code" x="50" y="1589">+ One artifact promotes through dev &#8594; CI &#8594; stage &#8594; prod (incl. Cloud Manager)</text>

  <text class="title" x="700" y="1555">Cons</text>
  <text class="code" x="700" y="1573">- Heavy initial setup (JDK + Maven + ~500 MB downloads on first build)</text>
  <text class="code" x="700" y="1589">- Slower iteration loop (~25-60 s vs 5 s for the curl-only path)</text>

  <text class="title" x="1300" y="1555">When to use</text>
  <text class="code" x="1300" y="1573">Use Option A to learn JCR &amp; experiment fast</text>
  <text class="code" x="1300" y="1589">Use Option B to ship real projects to real envs</text>
</svg>
